<svg width="24" height="32" viewBox="0 0 24 32" fill="none" xmlns="http://www.w3.org/2000/svg">
    <path
        fill-rule="evenodd"
        clip-rule="evenodd"
        d="M14.2975 12.1488C13.7427 12.6556 11.905 14.265 11.9058 14.2644C11.1378 14.9481 10.6338 15.4358 10.2811 15.8582C10.2605 15.848 7.29145 14.2518 7.05119 14.0992C7.26174 13.6012 7.54436 12.9427 7.74649 12.5096C8.10906 11.7326 8.79324 10.5408 8.79324 10.5408C8.79324 10.5408 8.28754 11.1111 7.51059 10.0751C6.73365 9.03921 5.88144 7.56311 4.84551 7.56311C3.80958 7.56311 2.78732 10.5408 2.78732 10.5408C2.78732 10.5408 2.46326 10.5931 3.80997 12.3024C5.06858 13.8998 7.15594 15.6299 7.3448 15.7255C7.58354 15.8658 9.15936 16.795 9.29019 16.8605C8.03218 18.7711 8.26021 20.2634 8.26021 22.12C8.26021 22.5349 8.86431 24.3874 9.09319 24.8569C9.30561 25.2926 9.54516 25.7314 9.8435 26.2018C9.87737 26.2552 10.9011 27.2491 10.9812 27.3522C9.28117 27.1953 8.01607 26.3431 7.02134 25.7176C0.184227 21.4185 -0.73483 13.5968 2.78732 7.32943C5.08043 3.24904 9.09319 10.0751 9.09319 10.0751C9.09319 10.0751 10.7507 7.38173 14.221 4.06676C14.5165 4.51634 14.739 5.05089 15.0636 5.70559C16.5133 1.52824 17.07 0.675621 18.0021 0.648206C20.5769 0.572478 24.7357 9.09101 22.6638 16.8605C21.2741 22.0717 15.6183 26.9781 12.1916 27.3522C11.9058 27.0075 11.6688 26.7166 11.5628 26.5743C11.2596 26.1674 11.2637 25.9747 10.9812 25.5293C10.6964 25.0803 10.4806 24.721 10.2811 24.3116C10.0727 23.8842 9.92932 23.3518 9.8435 23.0086C9.32013 20.9151 9.30787 19.2223 10.674 17.4596C10.9949 17.0456 11.7013 16.1845 12.5351 15.4422C12.5295 15.4472 14.5021 13.61 15.0636 13.0972C17.5349 10.84 19.083 9.23918 19.6057 7.37247C20.3246 5.14768 20.7141 4.96072 19.6057 3.33761C19.6057 3.33761 18.6755 2.31557 18.0021 2.36737C17.3288 2.41916 16.8433 4.31806 16.7397 4.57704C16.6361 4.83603 16.296 5.41297 15.5708 7.32943C15.6849 7.58612 15.8611 7.38676 16.2411 8.31406C16.4176 8.74483 16.5921 9.23753 16.7397 9.65935C16.0909 10.4327 15.2787 11.2526 14.2975 12.1488Z"
        class="logo-svg-fill-theme-color"
    />
</svg>